<svg width="158" height="26" viewBox="0 0 158 26" fill="none" xmlns="http://www.w3.org/2000/svg">
<path fill-rule="evenodd" clip-rule="evenodd" d="M102.997 2.26493C103.301 2.26493 103.837 2.33931 103.837 1.85494C103.837 1.47307 103.53 1.42409 103.203 1.42409H102.54V2.26493H102.997ZM104.114 3.58742H103.759L103.074 2.49169H102.538V3.58742H102.234V1.22H103.275C103.503 1.22 103.68 1.24812 103.86 1.34699C104.012 1.42499 104.113 1.62999 104.113 1.85675C104.113 2.34112 103.782 2.4926 103.402 2.4926L104.114 3.58742ZM104.877 2.39283C104.875 1.9073 104.681 1.44227 104.338 1.09895C103.996 0.755626 103.532 0.561802 103.047 0.559654C102.03 0.559654 101.171 1.37511 101.171 2.39283C101.171 3.43504 102.03 4.27316 103.047 4.27316C104.038 4.27226 104.877 3.43504 104.877 2.39283ZM100.941 2.39283C100.941 2.11671 100.995 1.84328 101.101 1.58841C101.207 1.33353 101.363 1.10228 101.559 0.908051C101.755 0.713821 101.987 0.560487 102.243 0.456928C102.498 0.35337 102.771 0.30165 103.047 0.304771C104.218 0.304771 105.156 1.24812 105.156 2.39283C105.156 3.56294 104.218 4.52714 103.047 4.52714C101.855 4.52714 100.941 3.56294 100.941 2.39283ZM155.866 2.26493C156.174 2.26493 156.706 2.33931 156.706 1.85494C156.706 1.47307 156.374 1.42409 156.096 1.42409H155.412V2.26493H155.866ZM156.961 3.58742H156.628L155.92 2.49169H155.412V3.58742H155.132V1.22H156.149C156.35 1.22 156.529 1.24812 156.731 1.34699C156.911 1.42499 156.985 1.62999 156.985 1.85675C156.985 2.34112 156.656 2.4926 156.248 2.4926L156.961 3.58742ZM157.746 2.39283C157.746 1.37511 156.935 0.559654 155.894 0.559654C155.654 0.558815 155.415 0.605658 155.193 0.697486C154.971 0.789314 154.769 0.924313 154.599 1.09471C154.428 1.2651 154.294 1.46752 154.202 1.69031C154.11 1.9131 154.064 2.15186 154.064 2.39283C154.064 3.43504 154.879 4.27316 155.894 4.27316C156.935 4.27226 157.746 3.43504 157.746 2.39283ZM153.809 2.39283C153.809 1.24812 154.698 0.304771 155.894 0.304771C157.061 0.304771 158 1.24812 158 2.39283C158 3.56294 157.061 4.52714 155.894 4.52714C154.698 4.52714 153.809 3.56294 153.809 2.39283ZM30.3215 21.8039C29.5902 21.8066 28.8656 21.6642 28.1895 21.385C27.5134 21.1058 26.8992 20.6953 26.3821 20.1772C25.865 19.6591 25.4554 19.0436 25.1769 18.3661C24.8983 17.6887 24.7564 16.9627 24.7591 16.23C24.7589 15.4983 24.9026 14.7738 25.1821 14.0978C25.4616 13.4218 25.8714 12.8076 26.388 12.2904C26.9047 11.7732 27.518 11.3632 28.1929 11.0837C28.8679 10.8042 29.5912 10.6608 30.3215 10.6616C31.0515 10.6612 31.7743 10.805 32.4488 11.0847C33.1233 11.3645 33.7361 11.7746 34.2523 12.2918C34.7684 12.8089 35.1778 13.4229 35.457 14.0987C35.7362 14.7744 35.8797 15.4987 35.8793 16.23C35.8823 16.9624 35.7406 17.6881 35.4625 18.3654C35.1843 19.0426 34.7751 19.658 34.2585 20.1761C33.7419 20.6942 33.128 21.1048 32.4523 21.3842C31.7766 21.6636 31.0524 21.8062 30.3215 21.8039ZM9.44536 21.8039C6.37356 21.8039 3.91105 19.3376 3.91105 16.23C3.91105 13.1524 6.37356 10.6616 9.44536 10.6616C12.5172 10.6616 15.0077 13.1524 15.0077 16.23C15.0103 16.9626 14.8681 17.6885 14.5895 18.3658C14.3108 19.0432 13.9012 19.6586 13.3842 20.1767C12.8672 20.6947 12.253 21.1052 11.577 21.3845C10.901 21.6638 10.1766 21.8063 9.44536 21.8039ZM79.4305 21.8039C76.3587 21.8039 73.8971 19.3376 73.8971 16.23C73.8971 13.1524 76.3587 10.6616 79.4305 10.6616C82.4769 10.6616 84.9684 13.1524 84.9684 16.23C84.9715 16.9607 84.8306 17.6849 84.5537 18.3609C84.2768 19.0369 83.8694 19.6514 83.3548 20.1693C82.8403 20.6872 82.2288 21.0982 81.5554 21.3787C80.8819 21.6592 80.1598 21.8037 79.4305 21.8039ZM58.3289 21.8039C57.5971 21.8084 56.8718 21.6673 56.1948 21.3887C55.5179 21.1102 54.9029 20.6997 54.3855 20.1813C53.8681 19.6628 53.4586 19.0465 53.1806 18.3683C52.9027 17.69 52.762 16.9632 52.7666 16.23C52.7645 15.4978 52.907 14.7724 53.1859 14.0956C53.4648 13.4188 53.8745 12.8039 54.3915 12.2864C54.9085 11.7689 55.5225 11.3589 56.1982 11.08C56.874 10.8012 57.5981 10.659 58.3289 10.6616C59.0591 10.6611 59.7823 10.8048 60.4571 11.0844C61.1319 11.364 61.745 11.7741 62.2616 12.2912C62.7781 12.8083 63.1879 13.4223 63.4676 14.0982C63.7472 14.774 63.8912 15.4984 63.8913 16.23C63.8937 16.9626 63.7515 17.6884 63.4728 18.3657C63.1941 19.043 62.7845 19.6584 62.2675 20.1764C61.7505 20.6945 61.1364 21.1049 60.4605 21.3843C59.7845 21.6636 59.0601 21.8062 58.3289 21.8039ZM35.9083 23.892C34.2918 25.0891 32.3326 25.7311 30.3224 25.7224C25.0886 25.7224 20.849 21.4738 20.849 16.23C20.849 11.0144 25.0886 6.76758 30.3224 6.76758C32.4028 6.76758 34.3321 7.45332 35.8802 8.59803V0.789139H39.9959V25.571H35.9083V23.892ZM101.982 12.824C101.752 11.2693 100.508 10.1527 98.5294 10.1527C97.4883 10.1527 95.2286 10.5065 95.2286 11.8553C95.2286 13.8662 98.6571 14.0431 99.4936 14.0957C104.981 14.6046 106.579 17.0219 106.579 19.8701C106.579 21.9817 105.512 23.5582 103.99 24.6784C102.696 25.619 100.03 26 98.4027 26C94.7958 26 91.141 24.019 90.6575 19.5372H94.6963C94.9208 21.6506 97.1325 22.4389 98.3773 22.4389C100.635 22.4389 102.236 21.4738 102.236 20.3535C102.236 18.573 100.586 18.1902 98.1972 17.9371C96.8555 17.7847 94.2861 17.3258 93.2215 16.435C92.03 15.4944 91.0133 14.4241 91.0133 12.5936C91.0133 9.31098 93.5773 6.71679 98.6326 6.68867C102.822 6.66418 105.996 9.1595 106.094 12.795L101.982 12.824ZM15.0322 23.892C13.4157 25.09 11.456 25.7321 9.44536 25.7224C4.18989 25.7224 0 21.4738 0 16.23C0 11.0144 4.18989 6.76758 9.44536 6.76758C11.5294 6.76758 13.4587 7.45332 15.0322 8.59803V6.79298H19.0944V25.571H15.0322V23.892ZM47.053 5.49497V0.763741H42.9654V5.49497H47.053ZM47.053 25.57V6.79207H42.9654V25.57H47.053ZM84.9684 23.892C83.4438 25.0612 81.5155 25.7224 79.4305 25.7224C74.2004 25.7224 69.9607 21.4738 69.9607 16.23C69.9607 11.0144 74.2004 6.76758 79.4305 6.76758C81.5155 6.76758 83.4447 7.45332 84.9684 8.59803V6.79298H89.0795V25.571H85.0182L84.9684 23.892ZM63.9158 23.892C62.3676 25.0612 60.4139 25.7224 58.3289 25.7224C53.1232 25.7224 48.8591 21.4738 48.8591 16.23C48.8591 11.0144 53.1232 6.76758 58.3289 6.76758C60.4139 6.76758 62.3432 7.45332 63.9158 8.59803V0.789139H67.9789V25.571H63.9158V23.892ZM138.17 14.0957C138.398 9.64297 137.075 4.75663 133.519 0C130.068 4.45276 128.851 9.51598 129.153 14.0957H138.17ZM129.686 17.6296C129.534 16.9656 129.407 16.296 129.305 15.6223H138.016C137.916 16.2963 137.789 16.966 137.635 17.6296H129.686ZM131.717 22.6702C132.277 23.6026 132.922 24.48 133.646 25.2907C134.359 24.5006 134.994 23.609 135.579 22.6702H131.717ZM151.755 14.1202C152.77 12.0077 153.482 9.64296 153.81 6.99616C147.896 7.50593 143.248 10.3786 140.122 14.1202H151.755ZM150.967 15.6223C150.561 16.3325 150.127 16.9684 149.673 17.6296L137.811 17.5797C138.191 16.9439 138.573 16.23 139.006 15.6223H150.967ZM146.294 21.1427C147.037 20.5348 147.733 19.871 148.375 19.1571L118.918 19.1326C119.582 19.8681 120.303 20.5488 121.076 21.1681L146.294 21.1427ZM136.01 22.6702C135.836 23.5155 135.734 24.3743 135.706 25.2372C138.524 25.1111 141.444 24.2448 144.086 22.6702H136.01ZM116.33 15.6223C116.76 16.3325 117.193 16.9684 117.677 17.6296H129.486C129.153 16.9439 128.749 16.2836 128.313 15.6223H116.33ZM123.235 22.6702C125.877 24.2448 128.773 25.1111 131.59 25.2372C131.559 24.376 131.466 23.5182 131.313 22.6702H123.235ZM127.171 14.1202C124.074 10.3786 119.454 7.50593 113.535 6.99616C113.836 9.45986 114.513 11.8626 115.542 14.1202H127.171Z" fill="#7B8D9E"/>
</svg>
