<svg width="116" height="32" viewBox="0 0 116 32" fill="none" xmlns="http://www.w3.org/2000/svg">
<path fill-rule="evenodd" clip-rule="evenodd" d="M62.3637 12.7936C58.4286 12.8079 56.9331 17.2798 56.9541 20.2992C56.9734 23.1723 58.4044 27.6347 62.3975 27.6522C66.2682 27.6681 67.9732 23.1071 67.9232 19.8013C67.8716 16.5369 66.1442 12.7841 62.3637 12.7936ZM73.0363 20.0129C73.0363 26.4033 69.2317 31.2809 62.3685 31.2809C55.7471 31.2809 51.9521 26.5561 51.9521 20.3406C51.9521 14.2015 55.934 9.12511 62.2719 9.08852C69.0496 9.04875 73.0363 13.5843 73.0363 20.0129Z" fill="#7B8D9E"/>
<path fill-rule="evenodd" clip-rule="evenodd" d="M22.2776 6.55906C20.3148 4.92844 16.8148 4.91094 14.5217 5.37388V15.6874C17.9235 16.2569 21.6959 15.8051 23.1736 12.9113C24.1936 10.91 24.0598 8.04015 22.2776 6.55906ZM22.3163 19.0297C20.0506 19.7838 16.5215 20.0002 14.5217 19.5309V30.8275H9.65674V1.81515C13.4356 1.24403 17.5158 0.919498 21.38 1.58288C25.8083 2.34331 28.7798 5.40888 28.7733 9.98098C28.7669 14.1856 26.5624 17.6202 22.3163 19.0297Z" fill="#7B8D9E"/>
<path fill-rule="evenodd" clip-rule="evenodd" d="M5.43136 9.54504V30.8274H0.566406V9.54504H5.43136Z" fill="#7B8D9E"/>
<path fill-rule="evenodd" clip-rule="evenodd" d="M5.41204 5.23704C4.83192 5.96565 3.92468 6.35541 3.01743 6.37768C2.05218 6.39995 1.08692 6.00224 0.519692 5.15113C-0.158728 4.13458 -0.202237 2.64395 0.563201 1.66399C1.1256 0.944923 2.01673 0.580618 2.91914 0.564709C3.85055 0.54721 4.79325 0.898788 5.39754 1.60354C6.25644 2.601 6.22421 4.2173 5.41204 5.23704Z" fill="#7B8D9E"/>
<path fill-rule="evenodd" clip-rule="evenodd" d="M111.324 17.9512C111.324 16.5258 110.784 14.5913 109.563 13.5668C107.96 12.2225 105.431 12.345 103.815 13.6511C102.603 14.6295 101.741 16.3731 101.768 17.9512H111.324ZM115.947 21.4097H101.768C101.768 24.9573 103.742 27.2275 107.581 27.4724C109.581 27.5997 112.115 27.1686 114.033 26.4654L114.889 29.8794C113.066 30.8816 109.956 31.2507 107.628 31.2459C101.179 31.2364 96.8325 27.3372 96.8325 20.4902C96.8325 16.5656 98.2345 12.9448 101.138 10.8496C104.332 8.54291 109.595 8.39178 112.697 10.9483C115.171 12.9877 116.093 16.4351 115.993 19.8045L115.947 21.4097Z" fill="#7B8D9E"/>
<path fill-rule="evenodd" clip-rule="evenodd" d="M44.5846 18.2343C44.5846 15.1767 43.0038 13.15 40.3997 13.15C38.8849 13.15 35.6491 13.912 35.6491 19.1888V30.7814H30.847L30.7842 0H35.6491V12.5677C37.0237 10.3103 39.2733 9.18876 41.9596 9.18876C47.1823 9.18876 49.4496 12.722 49.4496 18.0387V30.8275H44.5846V18.2343Z" fill="#7B8D9E"/>
<path fill-rule="evenodd" clip-rule="evenodd" d="M89.4423 18.4172C89.4423 15.4344 88.158 13.1499 85.2203 13.1499C83.9215 13.1499 81.0402 13.9358 80.5439 18.0243V30.8275H75.6789C75.6531 23.7498 75.6741 16.6228 75.4888 9.54507H79.8397C79.9493 10.6173 80.0234 11.6895 80.0637 12.7618C81.543 10.3246 84.0488 9.18872 86.7786 9.18872C91.5372 9.18872 94.3056 12.4468 94.3056 17.4882V30.8275H89.4407L89.4423 18.4172Z" fill="#7B8D9E"/>
</svg>
