<svg width="128" height="40" viewBox="0 0 128 40" fill="none" xmlns="http://www.w3.org/2000/svg">
<path d="M72.5445 16.9232C70.0409 16.9232 68.2261 18.6935 68.2261 21.2117C68.2261 23.617 70.1495 25.5008 72.6042 25.5008C75.1073 25.5008 76.9235 23.6816 76.9235 21.2115C76.9235 18.807 74.9989 16.9229 72.5445 16.9229V16.9232ZM107.039 16.9232C104.537 16.9232 102.72 18.6935 102.72 21.2117C102.72 23.617 104.645 25.5008 107.101 25.5008C109.601 25.5008 111.419 23.6816 111.419 21.2115C111.419 18.807 109.495 16.9229 107.038 16.9229L107.039 16.9232ZM35.6781 16.6674C34.2092 16.6674 32.9947 17.2287 32.2307 18.1861C31.534 19.058 31.1079 20.2747 31.3241 21.831L39.1499 18.7989C38.5165 17.5278 37.2924 16.6674 35.6781 16.6674Z" fill="#7B8D9E"/>
<path d="M0 0V39.58H127.18V0H0ZM26.5286 28.8274H11.8039V9.04041H16.345V24.9886H26.5283V28.8279L26.5286 28.8274ZM36.1551 25.7594C37.8749 25.7594 38.9526 25.4471 40.8383 24.1448L43.671 26.178C42.2207 27.7456 39.1223 29.0868 36.0897 29.0868C30.6772 29.0868 26.9547 25.8102 26.9547 21.2132C26.9547 16.7326 30.6691 13.3387 35.5959 13.3387C38.3078 13.3387 40.5349 14.2019 42.0393 15.8342C43.0757 16.9578 43.7463 18.4325 43.9948 20.0863L32.5415 24.5226C33.3962 25.3094 34.6078 25.7594 36.1551 25.7594ZM62.0321 28.8277H57.5524V20.161C57.5524 18.1457 55.6338 16.942 53.7799 16.942C51.3817 16.942 50.0862 18.6004 50.0862 20.161V28.8277H45.6064V13.5956H50.0873L50.0864 15.7782H50.0873L50.0864 15.7804C51.3915 14.1535 53.5276 13.3395 55.4065 13.3395C59.3474 13.3395 62.0327 15.8817 62.0327 19.3853V28.8282L62.0321 28.8277ZM72.5443 29.0843C67.6447 29.0843 63.8043 25.6785 63.8043 21.2118C63.8043 16.7975 67.6702 13.339 72.6041 13.339C77.5053 13.339 81.3441 16.7475 81.3441 21.2115C81.3441 25.625 77.4779 29.0838 72.5443 29.0838V29.0843ZM87.3725 28.8236L80.6583 13.5951H85.7769L89.8264 23.972L93.877 13.5951H98.9966L92.2808 28.8228H87.373L87.3725 28.8236ZM107.039 29.0843C102.139 29.0843 98.3016 25.6785 98.3016 21.2118C98.3016 16.7975 102.168 13.339 107.101 13.339C112.001 13.339 115.838 16.7475 115.838 21.2115C115.838 25.625 111.974 29.0838 107.038 29.0838L107.039 29.0843ZM117.625 27.021H116.9V28.8279H116.451V27.0213H115.727V26.6356H117.625V27.0213V27.021ZM120.492 28.8279H120.057V27.2703L119.334 28.3236H119.287L118.563 27.2703V28.8282H118.128V26.6364H118.608L119.318 27.6747L120.028 26.6361H120.492V28.8279H120.492Z" fill="#7B8D9E"/>
</svg>
