<svg width="164" height="35" viewBox="0 0 164 35" fill="none" xmlns="http://www.w3.org/2000/svg">
<path d="M163.964 15.8348V12.9502H160.382V8.46692L160.262 8.50534L156.899 9.53008H156.835V12.9245H151.526V11.0288C151.526 10.1577 151.731 9.47885 152.115 9.03052C152.499 8.5822 153.063 8.35804 153.755 8.35804C154.267 8.35804 154.805 8.48613 155.318 8.7167L155.446 8.76793V5.74367L155.395 5.71805C154.908 5.54513 154.242 5.45546 153.422 5.45546C152.384 5.45546 151.436 5.68603 150.603 6.13947C149.77 6.57499 149.117 7.22826 148.669 8.04805C148.208 8.86785 147.977 9.81573 147.977 10.8533V12.9284H145.492V15.8105H147.99V27.9536H151.564V15.8105H156.877V23.5216C156.877 26.6983 158.371 28.3123 161.335 28.3123C161.822 28.3123 162.335 28.2508 162.847 28.1458C163.379 28.0305 163.744 27.9152 163.949 27.7999L164 27.7743V24.8666L163.855 24.964C163.663 25.092 163.42 25.2035 163.138 25.2803C162.856 25.3572 162.613 25.4084 162.431 25.4084C161.739 25.4084 161.226 25.2291 160.911 24.8615C160.586 24.4964 160.424 23.8495 160.424 22.9401V15.8438H163.986L163.978 15.8258L163.964 15.8348ZM137.458 25.4161C136.16 25.4161 135.135 24.9844 134.408 24.1352C133.687 23.2834 133.32 22.0678 133.32 20.523C133.32 18.9295 133.687 17.6793 134.412 16.8134C135.135 15.9526 136.15 15.5146 137.431 15.5146C138.673 15.5146 139.647 15.9321 140.364 16.7571C141.082 17.5871 141.441 18.8245 141.441 20.4359C141.441 22.0678 141.107 23.3218 140.441 24.1595C139.775 24.9921 138.776 25.4148 137.469 25.4148M137.623 12.5889C135.15 12.5889 133.18 13.3139 131.776 14.746C130.379 16.1806 129.664 18.161 129.664 20.6383C129.664 22.9952 130.356 24.8845 131.731 26.2615C133.102 27.6449 134.968 28.3622 137.274 28.3622C139.673 28.3622 141.605 27.6193 143.004 26.1783C144.413 24.7283 145.112 22.7633 145.112 20.3462C145.112 17.956 144.446 16.0474 143.127 14.6845C141.807 13.3088 139.957 12.6146 137.618 12.6146M123.884 12.6146C122.193 12.6146 120.804 13.0449 119.733 13.8955C118.667 14.7511 118.119 15.8681 118.119 17.2259C118.119 17.9355 118.239 18.558 118.472 19.096C118.703 19.6263 119.062 20.0952 119.541 20.4897C120.015 20.874 120.745 21.2839 121.719 21.704C122.539 22.037 123.141 22.3188 123.53 22.5494C123.915 22.7633 124.186 22.9849 124.325 23.1988C124.478 23.4038 124.555 23.6984 124.555 24.0442C124.555 25.0613 123.802 25.5506 122.249 25.5506C121.67 25.5506 121.012 25.4302 120.292 25.192C119.565 24.9563 118.891 24.6155 118.284 24.1775L118.13 24.075V27.5079L118.182 27.5335C118.694 27.7641 119.326 27.969 120.078 28.1227C120.827 28.2892 121.513 28.3661 122.102 28.3661C123.934 28.3661 125.407 27.9306 126.483 27.08C127.56 26.2193 128.11 25.069 128.11 23.6677C128.11 22.6557 127.816 21.7847 127.233 21.0866C126.656 20.3872 125.657 19.7493 124.257 19.1857C123.151 18.7374 122.438 18.3659 122.13 18.0841C121.848 17.8074 121.716 17.418 121.716 16.9261C121.716 16.4906 121.896 16.1397 122.261 15.8579C122.627 15.5696 123.14 15.4262 123.78 15.4262C124.376 15.4262 124.984 15.5158 125.599 15.7016C126.202 15.8912 126.733 16.1371 127.175 16.4394L127.325 16.5419V13.2627L127.274 13.2371C126.857 13.0578 126.317 12.9079 125.66 12.7888C125.006 12.6645 124.413 12.6094 123.898 12.6094M108.781 25.4315C107.487 25.4315 106.462 25.0037 105.744 24.1506C105.014 23.3052 104.649 22.0883 104.649 20.5384C104.649 18.95 105.016 17.6947 105.743 16.8326C106.461 15.9719 107.478 15.5338 108.754 15.5338C109.997 15.5338 110.983 15.9514 111.694 16.7763C112.401 17.6089 112.77 18.8463 112.77 20.4577C112.77 22.087 112.424 23.3397 111.758 24.1787C111.105 25.0113 110.105 25.4341 108.786 25.4341M108.965 12.612C106.48 12.612 104.507 13.3344 103.11 14.7665C101.705 16.2011 100.997 18.1802 100.997 20.6588C100.997 23.0157 101.688 24.9037 103.05 26.282C104.424 27.6654 106.286 28.3827 108.591 28.3827C111 28.3827 112.921 27.6398 114.331 26.1924C115.732 24.7398 116.444 22.7749 116.444 20.3577C116.444 17.9663 115.778 16.0577 114.472 14.6961C113.152 13.3191 111.299 12.6248 108.963 12.6248M95.5902 15.5812V12.9681H92.0543V27.9933H95.5902V20.3078C95.5902 19.0012 95.8849 17.9253 96.4704 17.1119C97.0469 16.3023 97.8156 15.9078 98.7508 15.9078C99.0711 15.9078 99.4298 15.959 99.8244 16.0615C100.209 16.164 100.485 16.2665 100.644 16.3946L100.798 16.497V12.9361L100.742 12.9104C100.409 12.7619 99.9474 12.6901 99.358 12.6901C98.4741 12.6901 97.6798 12.9771 96.9982 13.5355C96.3961 14.0325 95.9643 14.7089 95.6338 15.5543H95.5697L95.6018 15.5799L95.5902 15.5812ZM85.6999 12.6094C84.0729 12.6094 82.6252 12.9489 81.3953 13.6342C80.1552 14.3259 79.2046 15.2994 78.5512 16.5547C77.9106 17.7972 77.5775 19.251 77.5775 20.8714C77.5775 22.2932 77.9004 23.5921 78.5256 24.7424C79.1585 25.8952 80.0501 26.7918 81.1775 27.4195C82.2972 28.0382 83.5989 28.3546 85.0388 28.3546C86.7197 28.3546 88.152 28.0215 89.305 27.3554L89.3563 27.3298V24.0865L89.2025 24.1928C88.6811 24.5771 88.1007 24.8781 87.473 25.0959C86.8478 25.3136 86.279 25.4238 85.7819 25.4238C84.3906 25.4238 83.2786 24.9883 82.4689 24.1365C81.649 23.2654 81.239 22.0614 81.239 20.5499C81.239 19.0128 81.6746 17.7831 82.515 16.8864C83.3606 15.9642 84.4726 15.503 85.8331 15.503C86.9862 15.503 88.1225 15.9001 89.1935 16.6687L89.3473 16.7712V13.3639L89.305 13.3383C88.9015 13.1077 88.3531 12.9284 87.6652 12.7824C86.9913 12.6415 86.3277 12.5723 85.6948 12.5723M75.1511 12.9309H71.6203V27.969H75.1562V12.9309H75.1511ZM73.4088 6.53912C72.8271 6.53912 72.3198 6.73639 71.9021 7.12835C71.4845 7.52287 71.2718 8.01731 71.2718 8.60141C71.2718 9.17783 71.4858 9.66458 71.8996 10.0489C72.3095 10.4331 72.822 10.6227 73.4113 10.6227C74.0006 10.6227 74.5131 10.4306 74.9295 10.0463C75.3497 9.66202 75.5623 9.17527 75.5623 8.59885C75.5623 8.03524 75.3573 7.54849 74.9474 7.1386C74.5374 6.75432 74.025 6.54937 73.41 6.54937M64.583 11.8396V27.9792H68.1958V7.02459H63.1994L56.8668 22.5981L50.7046 7.02203H45.5109V27.9933H48.9059V11.8601H49.0212L55.5293 27.9972H58.0852L64.4908 11.8614H64.6125L64.5933 11.8537L64.583 11.8396ZM18.3727 18.3595H35.0018V35H18.3471L18.3701 18.371L18.3727 18.3595ZM0.00512452 18.3698H16.6316V35H0L0.00512452 18.3698ZM18.374 0.00512371H35.003V16.6315H18.3637L18.374 0V0.00512371ZM0.00512452 0.00256182H16.6316V16.6315H0L0.00512452 0V0.00256182Z" fill="#7B8D9E"/>
</svg>
