<svg width="135" height="27" viewBox="0 0 135 27" fill="none" xmlns="http://www.w3.org/2000/svg">
<path fill-rule="evenodd" clip-rule="evenodd" d="M74.029 12.5375C74.029 12.5375 72.7156 11.4282 71.9034 10.9989C71.9034 10.9989 69.3894 9.40737 68.8907 8.65015C68.8907 8.65015 67.9108 7.38888 68.4846 5.92392C68.4846 5.92392 68.7247 4.96531 69.7601 4.96531C69.7601 4.96531 71.1081 5.06658 71.1081 6.57987V8.71459H75.9389L75.9305 5.57063C75.9305 5.57063 76.302 0.421993 70.2403 0.195287C70.2403 0.195287 65.4727 -0.232813 64.1053 3.2748C64.1053 3.2748 63.5687 4.05734 63.5687 6.78241V8.75141C63.5687 8.75141 63.5139 11.0231 64.3631 12.4869C64.3631 12.4869 64.8433 13.4466 66.0262 14.5054C66.0262 14.5054 68.4281 16.2718 69.8696 17.2834C69.8696 17.2834 71.3246 18.4181 71.1334 20.2237C71.1334 20.2237 71.0146 22.0776 69.6093 22.0016C69.6093 22.0016 68.3245 21.9234 68.3245 20.1051V17.9716H63.1769V21.0706C63.1769 21.0706 63.0328 26.9972 69.6472 26.9972C69.6472 26.9972 75.9676 27.1721 76.2625 20.9153V18.3916C76.2616 18.3916 76.4857 14.5572 74.029 12.5375ZM49.2969 0.932943L47.6793 14.7793H47.301L45.7559 1.05723H37.6865L37.2821 26.1318H42.0599L42.1172 7.23928H42.4929L45.0254 26.1284H50.0517L52.5531 7.24618H52.8859L53.0013 26.1318H57.8043L57.287 0.932943H49.2969ZM20.8561 1.03767L17.6774 26.103H22.8208L24.7037 6.66849H25.1267L27.0088 26.103H32.1514L28.9735 1.03767H20.8561ZM128.781 12.1923V15.8898H130.1V19.8589C130.1 21.7991 128.886 21.8348 128.886 21.8348C127.41 21.8348 127.466 19.9912 127.466 19.9912V6.26225C127.466 4.84793 128.776 4.77198 128.776 4.77198C130.033 4.77198 130.041 6.45904 130.041 6.45904V8.54657H134.884C135.042 4.47162 134.447 3.4854 134.447 3.4854C133.246 -0.199432 128.702 0.00195533 128.702 0.00195533C121.718 0.00195533 122.493 7.32099 122.493 7.32099V20.5954C122.643 27.4598 129.525 26.7624 129.641 26.7567C132.702 26.2941 133.626 24.9649 133.626 24.9649C134.477 24.1018 134.696 22.9061 134.696 22.9061C134.939 22.2099 135 19.9912 135 19.9912V12.1923H128.781ZM112.729 16.2718H112.518L107.604 0.939844H101.724V26.1341H106.51L106.223 10.8044H106.437L111.528 26.1341H117.229V0.937544H112.383L112.729 16.2718ZM90.0431 19.8565C90.0431 19.8565 90.1121 21.9245 88.7086 21.9245C88.7086 21.9245 87.2325 22.0327 87.2325 19.9083L87.2173 0.954805H81.9686V19.7576C81.9686 19.7576 81.4303 26.8741 88.7827 26.8741C88.7827 26.8741 95.1721 26.9776 95.1721 20.0844V0.955955H90.0431V19.8565ZM10.8498 12.5375C10.8498 12.5375 9.53808 11.4282 8.72508 11.0001C8.72508 11.0001 6.21277 9.40967 5.71402 8.6513C5.71402 8.6513 4.7342 7.38773 5.30878 5.92622C5.30878 5.92622 5.54805 4.96761 6.58263 4.96761C6.58263 4.96761 7.93145 5.06773 7.93145 6.58102V8.71574H12.764L12.7547 5.57063C12.7547 5.57063 13.1237 0.421993 7.06453 0.196438C7.06453 0.196438 6.6079 0.156157 5.93812 0.202188C5.93812 0.202188 2.26739 0.471474 0.954793 3.22186C0.947211 3.24258 0.936258 3.25754 0.928676 3.27596C0.928676 3.27596 0.392853 4.05734 0.392853 6.78356V8.75257C0.392853 8.75257 0.337247 11.0242 1.18732 12.488C1.18732 12.488 1.66754 13.4478 2.8504 14.5065C2.8504 14.5065 5.25149 16.273 6.69299 17.2845C6.69299 17.2845 8.14966 18.4169 7.95673 20.2248C7.95673 20.2248 7.83794 22.0787 6.4335 22.0028C6.4335 22.0028 5.14871 21.9245 5.14871 20.1063V17.9716H0.000251029V21.0729C0.000251029 21.0729 -0.143814 26.9995 6.47057 26.9995C6.47057 26.9995 12.7892 27.1744 13.0866 20.9176V18.3962C13.0866 18.3939 13.3074 14.5572 10.8498 12.5375Z" fill="#7B8D9E"/>
</svg>
