<svg width="132" height="40" viewBox="0 0 132 40" fill="none" xmlns="http://www.w3.org/2000/svg">
<path d="M128.839 32.3029L121.151 21.9032L113.473 32.3029H110.309L119.551 19.7379L111.111 8.31641H114.274L121.151 17.6314L128.029 8.31641H131.19L122.756 19.7357L132 32.3029H128.839ZM68.9377 32.2987L59.6857 19.7357L68.1258 8.31641H64.9623L58.0829 17.6335L51.2098 8.31641H48.0548L56.4906 19.7357L47.2407 32.2987H50.4084L58.0871 21.9032L65.7722 32.2987H68.9377Z" fill="#7B8D9E"/>
<path d="M86.5266 20.644C86.0499 20.239 85.519 19.9022 84.9491 19.6433C85.8236 19.1801 86.555 18.4882 87.0648 17.6419C87.5745 16.7956 87.8434 15.8268 87.8426 14.8397C87.8426 13.3051 87.2752 8.31434 80.0204 8.31434H70.2496V18.6552H66.9955C66.5737 19.2039 65.6141 20.522 65.2492 21.0623H70.2496V32.2988L80.0225 32.3009C85.316 32.3009 88.6039 29.6226 88.6039 25.2983C88.6039 23.4105 87.889 21.8065 86.5266 20.644ZM72.9512 10.8181H80.0225C81.9353 10.8181 85.141 11.2932 85.141 14.6295C85.141 17.1521 83.2745 18.6552 80.0225 18.6552H72.9512V10.8181ZM80.0204 29.7992H72.9491V21.0686H80.0204C82.7009 21.0686 85.9086 21.8065 85.9086 25.2458C85.9086 29.2064 82.2201 29.7992 80.0204 29.7992ZM101.315 7.76356C94.5554 7.76356 89.8313 12.9161 89.8313 20.295C89.8313 27.6843 94.5554 32.8327 101.315 32.8327C108.068 32.8327 112.779 27.6843 112.779 20.295C112.779 12.9161 108.068 7.76356 101.315 7.76356ZM101.315 30.2953C96.1645 30.2953 92.5561 26.1812 92.5561 20.295C92.5561 14.4087 96.1645 10.2968 101.315 10.2968C106.456 10.2968 110.044 14.4087 110.044 20.295C110.044 26.1812 106.456 30.2953 101.315 30.2953ZM5.98526 5.74962L5.96628 5.76643C4.07375 7.62378 2.57143 9.84048 1.54705 12.283C0.522668 14.7255 -0.00324639 17.347 1.86168e-05 19.9944C-0.00597403 24.3708 1.43493 28.6273 4.09984 32.1053C4.12726 32.139 4.16944 32.1579 4.2074 32.139C4.24325 32.118 4.24536 32.0738 4.2306 32.036C2.7016 27.3228 10.5174 15.8992 14.5561 11.1103C14.5687 11.0935 14.5856 11.0746 14.5856 11.0515C14.5856 11.0241 14.5666 11.0031 14.5476 10.9863C7.75468 4.24652 5.94097 5.78746 5.96628 5.76643M34.1315 5.74962L34.1505 5.76643C36.0428 7.62381 37.5449 9.84056 38.5689 12.2831C39.5929 14.7256 40.1184 17.3471 40.1146 19.9944C40.1206 24.3708 38.6797 28.6273 36.0148 32.1053C35.9895 32.139 35.9452 32.1579 35.9072 32.139C35.8735 32.118 35.8714 32.0738 35.884 32.036C37.413 27.3228 29.6035 15.8908 25.567 11.0998C25.5522 11.083 25.5375 11.0641 25.5375 11.043C25.5375 11.0136 25.5543 10.9926 25.5754 10.9758C32.3705 4.23601 34.1716 5.78746 34.1484 5.76643M20.0584 0C24.1055 0 27.4355 1.10578 30.5062 2.92631C30.5441 2.94523 30.5547 2.98728 30.5399 3.02512C30.5252 3.06086 30.483 3.06926 30.4429 3.05875C26.5603 2.22206 20.6573 5.56672 20.1005 5.90098C20.0879 5.90939 20.0752 5.91779 20.0584 5.91779C20.0394 5.91779 20.0267 5.90939 20.0141 5.90098C18.5336 5.05378 13.0777 2.20314 9.6422 3.07978C9.60424 3.08818 9.56206 3.08188 9.54519 3.04404C9.53799 3.02627 9.53744 3.00652 9.54363 2.98838C9.54983 2.97025 9.56235 2.95493 9.57893 2.94523C12.6496 1.10578 16.0218 0 20.0584 0ZM20.0584 16.0359C20.0816 16.0359 20.1069 16.0548 20.1216 16.0674C26.1237 20.6166 36.3965 31.8636 33.2605 35.0443L33.2647 35.0401L33.2626 35.0443H33.2605C29.6096 38.2385 24.914 39.9971 20.0563 39.9908C15.198 39.9967 10.5039 38.2382 6.85204 35.0443C3.72234 31.8636 13.993 20.6166 19.9888 16.0674C20.0056 16.0548 20.0331 16.0359 20.0584 16.0359Z" fill="#7B8D9E"/>
</svg>
