<svg width="21" height="21" viewBox="0 0 21 21" fill="none" xmlns="http://www.w3.org/2000/svg">
<path d="M7.21875 17.7188C7.58119 17.7188 7.875 17.4249 7.875 17.0625C7.875 16.7001 7.58119 16.4062 7.21875 16.4062C6.85631 16.4062 6.5625 16.7001 6.5625 17.0625C6.5625 17.4249 6.85631 17.7188 7.21875 17.7188Z" stroke="black" stroke-width="1.2" stroke-linecap="round" stroke-linejoin="round"/>
<path d="M16.4062 17.7188C16.7687 17.7188 17.0625 17.4249 17.0625 17.0625C17.0625 16.7001 16.7687 16.4062 16.4062 16.4062C16.0438 16.4062 15.75 16.7001 15.75 17.0625C15.75 17.4249 16.0438 17.7188 16.4062 17.7188Z" stroke="black" stroke-width="1.2" stroke-linecap="round" stroke-linejoin="round"/>
<path d="M1.96875 3.28125H4.59375L6.5625 14.4375H17.0625" stroke="black" stroke-width="1.2" stroke-linecap="round" stroke-linejoin="round"/>
<path d="M6.5625 10.9375H16.7934C16.8693 10.9376 16.9429 10.9113 17.0016 10.8632C17.0603 10.8151 17.1005 10.7482 17.1154 10.6738L18.2967 4.76752C18.3062 4.71989 18.305 4.67075 18.2933 4.62362C18.2815 4.5765 18.2594 4.53258 18.2286 4.49503C18.1978 4.45747 18.1591 4.42723 18.1151 4.40647C18.0712 4.38572 18.0233 4.37497 17.9747 4.375H5.25" stroke="black" stroke-width="1.2" stroke-linecap="round" stroke-linejoin="round"/>
</svg>
