<svg width="90" height="16" viewBox="0 0 90 16" fill="none" xmlns="http://www.w3.org/2000/svg">
<path d="M7.614 15.252C6.606 15.252 5.676 15.09 4.824 14.766C3.972 14.442 3.228 13.986 2.592 13.398C1.968 12.798 1.482 12.102 1.134 11.31C0.786 10.518 0.612 9.648 0.612 8.7C0.612 7.752 0.786 6.882 1.134 6.09C1.482 5.298 1.968 4.608 2.592 4.02C3.228 3.42 3.972 2.958 4.824 2.634C5.676 2.31 6.606 2.148 7.614 2.148C8.634 2.148 9.564 2.31 10.404 2.634C11.256 2.958 11.994 3.42 12.618 4.02C13.242 4.608 13.728 5.298 14.076 6.09C14.436 6.882 14.616 7.752 14.616 8.7C14.616 9.648 14.436 10.524 14.076 11.328C13.728 12.12 13.242 12.81 12.618 13.398C11.994 13.986 11.256 14.442 10.404 14.766C9.564 15.09 8.634 15.252 7.614 15.252ZM7.614 12.3C8.094 12.3 8.538 12.216 8.946 12.048C9.366 11.88 9.726 11.64 10.026 11.328C10.338 11.004 10.578 10.62 10.746 10.176C10.926 9.732 11.016 9.24 11.016 8.7C11.016 8.148 10.926 7.656 10.746 7.224C10.578 6.78 10.338 6.402 10.026 6.09C9.726 5.766 9.366 5.52 8.946 5.352C8.538 5.184 8.094 5.1 7.614 5.1C7.134 5.1 6.684 5.184 6.264 5.352C5.856 5.52 5.496 5.766 5.184 6.09C4.884 6.402 4.644 6.78 4.464 7.224C4.296 7.656 4.212 8.148 4.212 8.7C4.212 9.24 4.296 9.732 4.464 10.176C4.644 10.62 4.884 11.004 5.184 11.328C5.496 11.64 5.856 11.88 6.264 12.048C6.684 12.216 7.134 12.3 7.614 12.3ZM22.6747 5.082C23.4307 5.082 24.1147 5.238 24.7267 5.55C25.3387 5.85 25.8187 6.318 26.1667 6.954C26.5267 7.59 26.7067 8.412 26.7067 9.42V15H23.2867V9.978C23.2867 9.282 23.1427 8.778 22.8547 8.466C22.5787 8.142 22.1887 7.98 21.6847 7.98C21.3247 7.98 20.9947 8.064 20.6947 8.232C20.3947 8.388 20.1607 8.634 19.9927 8.97C19.8247 9.306 19.7407 9.744 19.7407 10.284V15H16.3207V5.244H19.5787V8.016L18.9487 7.206C19.3207 6.498 19.8307 5.97 20.4787 5.622C21.1267 5.262 21.8587 5.082 22.6747 5.082ZM34.0889 15.162C32.9369 15.162 31.9289 14.946 31.0649 14.514C30.2129 14.07 29.5469 13.47 29.0669 12.714C28.5989 11.946 28.3649 11.076 28.3649 10.104C28.3649 9.132 28.5929 8.268 29.0489 7.512C29.5169 6.744 30.1589 6.15 30.9749 5.73C31.7909 5.298 32.7089 5.082 33.7289 5.082C34.6889 5.082 35.5649 5.28 36.3569 5.676C37.1489 6.06 37.7789 6.63 38.2469 7.386C38.7149 8.142 38.9489 9.06 38.9489 10.14C38.9489 10.26 38.9429 10.398 38.9309 10.554C38.9189 10.71 38.9069 10.854 38.8949 10.986H31.1729V9.186H37.0769L35.7809 9.69C35.7929 9.246 35.7089 8.862 35.5289 8.538C35.3609 8.214 35.1209 7.962 34.8089 7.782C34.5089 7.602 34.1549 7.512 33.7469 7.512C33.3389 7.512 32.9789 7.602 32.6669 7.782C32.3669 7.962 32.1329 8.22 31.9649 8.556C31.7969 8.88 31.7129 9.264 31.7129 9.708V10.23C31.7129 10.71 31.8089 11.124 32.0009 11.472C32.2049 11.82 32.4929 12.09 32.8649 12.282C33.2369 12.462 33.6809 12.552 34.1969 12.552C34.6769 12.552 35.0849 12.486 35.4209 12.354C35.7689 12.21 36.1109 11.994 36.4469 11.706L38.2469 13.578C37.7789 14.094 37.2029 14.49 36.5189 14.766C35.8349 15.03 35.0249 15.162 34.0889 15.162ZM45.5117 15.162C44.4317 15.162 43.4657 14.946 42.6137 14.514C41.7737 14.082 41.1137 13.488 40.6337 12.732C40.1537 11.964 39.9137 11.088 39.9137 10.104C39.9137 9.12 40.1537 8.25 40.6337 7.494C41.1137 6.738 41.7737 6.15 42.6137 5.73C43.4657 5.298 44.4317 5.082 45.5117 5.082C46.6157 5.082 47.5697 5.316 48.3737 5.784C49.1777 6.252 49.7477 6.912 50.0837 7.764L47.4377 9.114C47.2097 8.658 46.9277 8.328 46.5917 8.124C46.2557 7.908 45.8897 7.8 45.4937 7.8C45.0977 7.8 44.7377 7.89 44.4137 8.07C44.0897 8.25 43.8317 8.514 43.6397 8.862C43.4597 9.198 43.3697 9.612 43.3697 10.104C43.3697 10.608 43.4597 11.034 43.6397 11.382C43.8317 11.73 44.0897 11.994 44.4137 12.174C44.7377 12.354 45.0977 12.444 45.4937 12.444C45.8897 12.444 46.2557 12.342 46.5917 12.138C46.9277 11.922 47.2097 11.586 47.4377 11.13L50.0837 12.48C49.7477 13.332 49.1777 13.992 48.3737 14.46C47.5697 14.928 46.6157 15.162 45.5117 15.162ZM51.3363 15V1.644H54.7563V15H51.3363ZM56.9789 15V5.244H60.3989V15H56.9789ZM58.6889 4.164C58.0649 4.164 57.5609 3.99 57.1769 3.642C56.7929 3.294 56.6009 2.862 56.6009 2.346C56.6009 1.83 56.7929 1.398 57.1769 1.05C57.5609 0.702 58.0649 0.528 58.6889 0.528C59.3129 0.528 59.8169 0.696 60.2009 1.032C60.5849 1.356 60.7769 1.776 60.7769 2.292C60.7769 2.832 60.5849 3.282 60.2009 3.642C59.8289 3.99 59.3249 4.164 58.6889 4.164ZM67.6074 15.162C66.5274 15.162 65.5614 14.946 64.7094 14.514C63.8694 14.082 63.2094 13.488 62.7294 12.732C62.2494 11.964 62.0094 11.088 62.0094 10.104C62.0094 9.12 62.2494 8.25 62.7294 7.494C63.2094 6.738 63.8694 6.15 64.7094 5.73C65.5614 5.298 66.5274 5.082 67.6074 5.082C68.7114 5.082 69.6654 5.316 70.4694 5.784C71.2734 6.252 71.8434 6.912 72.1794 7.764L69.5334 9.114C69.3054 8.658 69.0234 8.328 68.6874 8.124C68.3514 7.908 67.9854 7.8 67.5894 7.8C67.1934 7.8 66.8334 7.89 66.5094 8.07C66.1854 8.25 65.9274 8.514 65.7354 8.862C65.5554 9.198 65.4654 9.612 65.4654 10.104C65.4654 10.608 65.5554 11.034 65.7354 11.382C65.9274 11.73 66.1854 11.994 66.5094 12.174C66.8334 12.354 67.1934 12.444 67.5894 12.444C67.9854 12.444 68.3514 12.342 68.6874 12.138C69.0234 11.922 69.3054 11.586 69.5334 11.13L72.1794 12.48C71.8434 13.332 71.2734 13.992 70.4694 14.46C69.6654 14.928 68.7114 15.162 67.6074 15.162ZM76.276 13.2L76.366 9.114L80.344 5.244H84.394L79.984 9.798L78.238 11.202L76.276 13.2ZM73.432 15V1.644H76.852V15H73.432ZM80.596 15L77.608 11.256L79.732 8.628L84.736 15H80.596Z" fill="#2A3239"/>
<path d="M87.2118 15.162C86.6358 15.162 86.1498 14.97 85.7538 14.586C85.3578 14.202 85.1598 13.716 85.1598 13.128C85.1598 12.516 85.3578 12.03 85.7538 11.67C86.1498 11.298 86.6358 11.112 87.2118 11.112C87.7878 11.112 88.2738 11.298 88.6698 11.67C89.0658 12.03 89.2638 12.516 89.2638 13.128C89.2638 13.716 89.0658 14.202 88.6698 14.586C88.2738 14.97 87.7878 15.162 87.2118 15.162Z" fill="#BFF200"/>
</svg>
